<svg width="760" height="430" viewBox="0 0 760 430" fill="none" xmlns="http://www.w3.org/2000/svg">
  <rect width="760" height="430" rx="24" fill="#CAD9FF"/>
  <path d="M0 82L88 0H672L760 82V430H0V82Z" fill="#BECFFA"/>
  <path d="M0 430C44 360 118 322 216 314H544C642 322 716 360 760 430H0Z" fill="#51506D"/>
  <path d="M86 430C118 278 246 212 380 212C514 212 642 278 674 430H86Z" fill="#4A4965"/>
  <circle cx="180" cy="240" r="66" fill="#43435F" stroke="#2B2B3C" stroke-width="4"/>
  <circle cx="180" cy="240" r="22" fill="#5B6FB1"/>
  <rect x="286" y="206" width="188" height="68" rx="14" fill="#42598F"/>
  <rect x="304" y="222" width="76" height="34" rx="8" fill="#344770"/>
  <path d="M410 244L432 226L454 244" stroke="#F4D74F" stroke-width="4" stroke-linecap="round" stroke-linejoin="round"/>
  <rect x="316" y="302" width="132" height="44" rx="18" fill="#42598F"/>
  <ellipse cx="180" cy="240" rx="44" ry="44" fill="none" stroke="#2B2B3C" stroke-width="4"/>
  <circle cx="154" cy="215" r="11" fill="#FFD44D" stroke="#4160AA" stroke-width="3"/>
  <circle cx="205" cy="215" r="11" fill="#FFD44D" stroke="#4160AA" stroke-width="3"/>
  <circle cx="167" cy="215" r="4" fill="#4160AA"/>
  <circle cx="218" cy="215" r="4" fill="#4160AA"/>
  <path d="M180 240L205 268" stroke="#2B2B3C" stroke-width="4" stroke-linecap="round"/>
  <path d="M0 82H760" stroke="#7D93D7" stroke-width="2"/>
  <path d="M610 40L680 40L620 110L550 110L610 40Z" fill="#DCE6FF" fill-opacity="0.6"/>
  <path d="M672 0L728 0L640 110L584 110L672 0Z" fill="#DCE6FF" fill-opacity="0.6"/>
</svg>
